<?xml version="1.0" standalone="no"?>
<svg xmlns:xlink="http://www.w3.org/1999/xlink" id="wave" style="transform:rotate(0deg); transition: 0.3s" viewBox="0 0 1440 490" version="1.1" xmlns="http://www.w3.org/2000/svg"><defs><linearGradient id="sw-gradient-0" x1="0" x2="0" y1="1" y2="0"><stop stop-color="rgba(122.504, 207.614, 51.061, 1)" offset="0%"/><stop stop-color="rgba(135.068, 214.445, 201.001, 1)" offset="100%"/></linearGradient></defs><path style="transform:translate(0, 0px); opacity:1" fill="url(#sw-gradient-0)" d="M0,49L26.7,65.3C53.3,82,107,114,160,130.7C213.3,147,267,147,320,187.8C373.3,229,427,310,480,318.5C533.3,327,587,261,640,236.8C693.3,212,747,229,800,269.5C853.3,310,907,376,960,383.8C1013.3,392,1067,343,1120,285.8C1173.3,229,1227,163,1280,171.5C1333.3,180,1387,261,1440,318.5C1493.3,376,1547,408,1600,392C1653.3,376,1707,310,1760,294C1813.3,278,1867,310,1920,334.8C1973.3,359,2027,376,2080,318.5C2133.3,261,2187,131,2240,65.3C2293.3,0,2347,0,2400,8.2C2453.3,16,2507,33,2560,73.5C2613.3,114,2667,180,2720,171.5C2773.3,163,2827,82,2880,81.7C2933.3,82,2987,163,3040,163.3C3093.3,163,3147,82,3200,73.5C3253.3,65,3307,131,3360,147C3413.3,163,3467,131,3520,155.2C3573.3,180,3627,261,3680,277.7C3733.3,294,3787,245,3813,220.5L3840,196L3840,490L3813.3,490C3786.7,490,3733,490,3680,490C3626.7,490,3573,490,3520,490C3466.7,490,3413,490,3360,490C3306.7,490,3253,490,3200,490C3146.7,490,3093,490,3040,490C2986.7,490,2933,490,2880,490C2826.7,490,2773,490,2720,490C2666.7,490,2613,490,2560,490C2506.7,490,2453,490,2400,490C2346.7,490,2293,490,2240,490C2186.7,490,2133,490,2080,490C2026.7,490,1973,490,1920,490C1866.7,490,1813,490,1760,490C1706.7,490,1653,490,1600,490C1546.7,490,1493,490,1440,490C1386.7,490,1333,490,1280,490C1226.7,490,1173,490,1120,490C1066.7,490,1013,490,960,490C906.7,490,853,490,800,490C746.7,490,693,490,640,490C586.7,490,533,490,480,490C426.7,490,373,490,320,490C266.7,490,213,490,160,490C106.7,490,53,490,27,490L0,490Z"/><defs><linearGradient id="sw-gradient-1" x1="0" x2="0" y1="1" y2="0"><stop stop-color="rgba(118, 255, 3, 1)" offset="0%"/><stop stop-color="rgba(11, 221.939, 255, 1)" offset="100%"/></linearGradient></defs><path style="transform:translate(0, 50px); opacity:0.9" fill="url(#sw-gradient-1)" d="M0,147L26.7,130.7C53.3,114,107,82,160,122.5C213.3,163,267,278,320,310.3C373.3,343,427,294,480,245C533.3,196,587,147,640,155.2C693.3,163,747,229,800,253.2C853.3,278,907,261,960,228.7C1013.3,196,1067,147,1120,122.5C1173.3,98,1227,98,1280,122.5C1333.3,147,1387,196,1440,236.8C1493.3,278,1547,310,1600,285.8C1653.3,261,1707,180,1760,122.5C1813.3,65,1867,33,1920,57.2C1973.3,82,2027,163,2080,220.5C2133.3,278,2187,310,2240,318.5C2293.3,327,2347,310,2400,277.7C2453.3,245,2507,196,2560,187.8C2613.3,180,2667,212,2720,236.8C2773.3,261,2827,278,2880,269.5C2933.3,261,2987,229,3040,228.7C3093.3,229,3147,261,3200,261.3C3253.3,261,3307,229,3360,220.5C3413.3,212,3467,229,3520,269.5C3573.3,310,3627,376,3680,383.8C3733.3,392,3787,343,3813,318.5L3840,294L3840,490L3813.3,490C3786.7,490,3733,490,3680,490C3626.7,490,3573,490,3520,490C3466.7,490,3413,490,3360,490C3306.7,490,3253,490,3200,490C3146.7,490,3093,490,3040,490C2986.7,490,2933,490,2880,490C2826.7,490,2773,490,2720,490C2666.7,490,2613,490,2560,490C2506.7,490,2453,490,2400,490C2346.7,490,2293,490,2240,490C2186.7,490,2133,490,2080,490C2026.7,490,1973,490,1920,490C1866.7,490,1813,490,1760,490C1706.7,490,1653,490,1600,490C1546.7,490,1493,490,1440,490C1386.7,490,1333,490,1280,490C1226.7,490,1173,490,1120,490C1066.7,490,1013,490,960,490C906.7,490,853,490,800,490C746.7,490,693,490,640,490C586.7,490,533,490,480,490C426.7,490,373,490,320,490C266.7,490,213,490,160,490C106.7,490,53,490,27,490L0,490Z"/><defs><linearGradient id="sw-gradient-2" x1="0" x2="0" y1="1" y2="0"><stop stop-color="rgba(118, 255, 3, 1)" offset="0%"/><stop stop-color="rgba(11, 197.143, 255, 1)" offset="100%"/></linearGradient></defs><path style="transform:translate(0, 100px); opacity:0.8" fill="url(#sw-gradient-2)" d="M0,294L26.7,253.2C53.3,212,107,131,160,106.2C213.3,82,267,114,320,130.7C373.3,147,427,147,480,147C533.3,147,587,147,640,155.2C693.3,163,747,180,800,163.3C853.3,147,907,98,960,81.7C1013.3,65,1067,82,1120,122.5C1173.3,163,1227,229,1280,212.3C1333.3,196,1387,98,1440,114.3C1493.3,131,1547,261,1600,326.7C1653.3,392,1707,392,1760,326.7C1813.3,261,1867,131,1920,81.7C1973.3,33,2027,65,2080,81.7C2133.3,98,2187,98,2240,98C2293.3,98,2347,98,2400,122.5C2453.3,147,2507,196,2560,253.2C2613.3,310,2667,376,2720,408.3C2773.3,441,2827,441,2880,441C2933.3,441,2987,441,3040,408.3C3093.3,376,3147,310,3200,269.5C3253.3,229,3307,212,3360,171.5C3413.3,131,3467,65,3520,81.7C3573.3,98,3627,196,3680,196C3733.3,196,3787,98,3813,49L3840,0L3840,490L3813.3,490C3786.7,490,3733,490,3680,490C3626.7,490,3573,490,3520,490C3466.7,490,3413,490,3360,490C3306.7,490,3253,490,3200,490C3146.7,490,3093,490,3040,490C2986.7,490,2933,490,2880,490C2826.7,490,2773,490,2720,490C2666.7,490,2613,490,2560,490C2506.7,490,2453,490,2400,490C2346.7,490,2293,490,2240,490C2186.7,490,2133,490,2080,490C2026.7,490,1973,490,1920,490C1866.7,490,1813,490,1760,490C1706.7,490,1653,490,1600,490C1546.7,490,1493,490,1440,490C1386.7,490,1333,490,1280,490C1226.7,490,1173,490,1120,490C1066.7,490,1013,490,960,490C906.7,490,853,490,800,490C746.7,490,693,490,640,490C586.7,490,533,490,480,490C426.7,490,373,490,320,490C266.7,490,213,490,160,490C106.7,490,53,490,27,490L0,490Z"/><defs><linearGradient id="sw-gradient-3" x1="0" x2="0" y1="1" y2="0"><stop stop-color="rgba(118, 255, 3, 1)" offset="0%"/><stop stop-color="rgba(11, 238.469, 255, 1)" offset="100%"/></linearGradient></defs><path style="transform:translate(0, 150px); opacity:0.7" fill="url(#sw-gradient-3)" d="M0,294L26.7,310.3C53.3,327,107,359,160,367.5C213.3,376,267,359,320,334.8C373.3,310,427,278,480,261.3C533.3,245,587,245,640,261.3C693.3,278,747,310,800,343C853.3,376,907,408,960,351.2C1013.3,294,1067,147,1120,130.7C1173.3,114,1227,229,1280,285.8C1333.3,343,1387,343,1440,310.3C1493.3,278,1547,212,1600,196C1653.3,180,1707,212,1760,187.8C1813.3,163,1867,82,1920,106.2C1973.3,131,2027,261,2080,261.3C2133.3,261,2187,131,2240,138.8C2293.3,147,2347,294,2400,294C2453.3,294,2507,147,2560,122.5C2613.3,98,2667,196,2720,228.7C2773.3,261,2827,229,2880,245C2933.3,261,2987,327,3040,351.2C3093.3,376,3147,359,3200,326.7C3253.3,294,3307,245,3360,228.7C3413.3,212,3467,229,3520,253.2C3573.3,278,3627,310,3680,343C3733.3,376,3787,408,3813,424.7L3840,441L3840,490L3813.3,490C3786.7,490,3733,490,3680,490C3626.7,490,3573,490,3520,490C3466.7,490,3413,490,3360,490C3306.7,490,3253,490,3200,490C3146.7,490,3093,490,3040,490C2986.7,490,2933,490,2880,490C2826.7,490,2773,490,2720,490C2666.7,490,2613,490,2560,490C2506.7,490,2453,490,2400,490C2346.7,490,2293,490,2240,490C2186.7,490,2133,490,2080,490C2026.7,490,1973,490,1920,490C1866.7,490,1813,490,1760,490C1706.7,490,1653,490,1600,490C1546.7,490,1493,490,1440,490C1386.7,490,1333,490,1280,490C1226.7,490,1173,490,1120,490C1066.7,490,1013,490,960,490C906.7,490,853,490,800,490C746.7,490,693,490,640,490C586.7,490,533,490,480,490C426.7,490,373,490,320,490C266.7,490,213,490,160,490C106.7,490,53,490,27,490L0,490Z"/></svg>