<svg xmlns="http://www.w3.org/2000/svg" width="98.091" height="104.07" viewBox="0 0 98.091 104.07">
  <path id="gear-solid" d="M112.511,33.863a4.614,4.614,0,0,1-1.281,5l-8.8,8.009a38.742,38.742,0,0,1,0,10.326l8.8,8.009a4.614,4.614,0,0,1,1.281,5,51.6,51.6,0,0,1-3.191,6.972l-.955,1.646a53.554,53.554,0,0,1-4.492,6.362,4.65,4.65,0,0,1-4.98,1.382L87.571,82.951a44.472,44.472,0,0,1-8.944,5.183L76.087,99.741a4.873,4.873,0,0,1-3.7,3.618,53.114,53.114,0,0,1-8.822.711,51.986,51.986,0,0,1-8.456-.711,4.873,4.873,0,0,1-3.7-3.618L48.87,88.134a39.95,39.95,0,0,1-8.944-5.183L28.613,86.569a4.641,4.641,0,0,1-4.982-1.382,53.338,53.338,0,0,1-4.494-6.362l-.951-1.646a50.7,50.7,0,0,1-3.207-6.972,4.618,4.618,0,0,1,1.291-5L25.062,57.2a39.432,39.432,0,0,1,0-10.326l-8.793-8.009a4.609,4.609,0,0,1-1.291-5,50.938,50.938,0,0,1,3.207-6.972l.949-1.646a52.656,52.656,0,0,1,4.5-6.352,4.617,4.617,0,0,1,4.982-1.384l11.314,3.61a39.09,39.09,0,0,1,8.944-5.177L51.411,4.336A4.611,4.611,0,0,1,55.11.713a52.656,52.656,0,0,1,17.277,0,4.611,4.611,0,0,1,3.7,3.622l2.541,11.606a43.4,43.4,0,0,1,8.944,5.177l11.322-3.61a4.625,4.625,0,0,1,4.98,1.384,52.624,52.624,0,0,1,4.492,6.352l.955,1.646a51.6,51.6,0,0,1,3.191,6.972ZM63.749,68.3A16.353,16.353,0,1,0,47.488,51.852,16.3,16.3,0,0,0,63.749,68.3Z" transform="translate(-14.702)" fill="#fff"/>
</svg>
