<svg xmlns="http://www.w3.org/2000/svg" width="101.384" height="101.423" viewBox="0 0 101.384 101.423">
  <path id="wrench-solid" d="M101.463,25.112A3.2,3.2,0,0,0,96.1,23.656L80.905,38.849H64.414V22.358L79.606,7.165A3.2,3.2,0,0,0,78.15,1.8a32.083,32.083,0,0,0-15.066.049,31.715,31.715,0,0,0-23.655,25.66,29.092,29.092,0,0,0,1.011,14.929L5.1,77.781a14.282,14.282,0,0,0,0,20.2,13.6,13.6,0,0,0,9.744,4.366,14.552,14.552,0,0,0,10.1-4.185L60.286,62.82A32.085,32.085,0,0,0,75.4,64.011a31.737,31.737,0,0,0,25.66-23.655A28.943,28.943,0,0,0,101.463,25.112ZM16.605,91.236a4.763,4.763,0,1,1,4.763-4.763A4.764,4.764,0,0,1,16.605,91.236Z" transform="translate(-0.91 -0.926)" fill="#0bb260"/>
</svg>
