<svg xmlns="http://www.w3.org/2000/svg" width="120.095" height="106.772" viewBox="0 0 120.095 106.772">
  <path id="hand-holding-dollar-solid" d="M118.492,70.132a8.321,8.321,0,0,0-11.664-1.766L81.866,86.752H56.716a3.2,3.2,0,0,1-3.149-3.335,3.328,3.328,0,0,1,3.149-3.337H73.034a7.091,7.091,0,0,0,6.959-5.551,6.686,6.686,0,0,0-6.594-7.8H39.852a24.936,24.936,0,0,0-15.457,5.474l-9.7,7.87L3.149,79.891A3.516,3.516,0,0,0,0,83.416v20.016a3.322,3.322,0,0,0,3.149,3.341H75.324a21.853,21.853,0,0,0,12.867-4.227l28.174-20.754A8.108,8.108,0,0,0,118.492,70.132ZM58.245,36.494a31.644,31.644,0,0,1-5.505-1.647l-1.022-.355a4.9,4.9,0,0,0-6.381,2.857,5.088,5.088,0,0,0,3.043,6.39l.971.345a51.565,51.565,0,0,0,5.712,1.733v2.563a5,5,0,1,0,10.006,0V46.212c5.27-1.193,8.942-4.557,9.614-9.534,1.812-10.437-8.11-13.276-13.434-14.8l-1.1-.382c-5.485-1.556-5.172-2.227-5.026-3.084.241-1.411,3.191-2.1,6.717-1.541a25.127,25.127,0,0,1,4.1,1.131A5.005,5.005,0,0,0,69.2,8.544a39.668,39.668,0,0,0-4.133-1.193V5A5,5,0,1,0,55.063,5V7.2c-5.264,1.191-8.955,4.532-10,9.511-1.606,10.316,8.467,13.278,12.262,14.4l1.355.391c6.6,1.89,6.5,2.48,6.327,3.47C64.772,36.39,61.832,37.078,58.245,36.494Z" fill="#0bb260"/>
</svg>
